<?xml version="1.0" standalone="no"?>
<!DOCTYPE svg PUBLIC "-//W3C//DTD SVG 20010904//EN"
 "http://www.w3.org/TR/2001/REC-SVG-20010904/DTD/svg10.dtd">
<svg version="1.0" xmlns="http://www.w3.org/2000/svg"
 width="500.000000pt" height="500.000000pt" viewBox="0 0 500.000000 500.000000"
 preserveAspectRatio="xMidYMid meet">

<g transform="translate(0.000000,500.000000) scale(0.100000,-0.100000)"
fill="#000000" stroke="none">
<path d="M3340 3000 l0 -100 275 0 c305 0 290 -4 259 68 -20 49 -60 90 -109
113 -34 16 -66 19 -232 19 l-193 0 0 -100z"/>
<path d="M1845 2810 c-9 -15 12 -30 43 -30 15 0 26 -9 32 -26 6 -14 10 -119
10 -232 0 -228 -5 -248 -58 -254 -16 -2 -27 -9 -27 -18 0 -12 22 -15 128 -18
122 -2 127 -2 127 18 0 16 -7 20 -30 20 -40 0 -50 23 -50 119 l0 81 58 -6 c68
-7 122 6 183 44 55 36 81 85 81 155 -1 63 -22 94 -88 127 -46 23 -61 25 -225
28 -130 3 -179 1 -184 -8z m334 -48 c48 -23 63 -54 58 -126 -3 -53 -7 -62 -39
-92 -38 -34 -105 -52 -153 -40 l-25 6 0 124 c0 149 7 162 79 152 24 -3 61 -14
80 -24z"/>
<path d="M2622 2803 c2 -10 14 -19 28 -21 47 -6 50 -20 50 -255 0 -131 -4
-226 -10 -238 -7 -12 -21 -19 -40 -19 -23 0 -30 -4 -30 -20 0 -19 7 -20 123
-20 68 0 126 3 130 6 11 12 -6 34 -27 34 -45 0 -51 14 -54 120 l-4 100 34 0
c43 0 56 -11 98 -80 86 -141 134 -180 223 -180 49 0 58 3 55 17 -2 9 -17 20
-35 25 -21 6 -47 27 -77 63 -45 56 -121 174 -115 179 2 1 24 11 47 21 102 44
128 143 60 221 -46 52 -101 64 -296 64 -150 0 -163 -1 -160 -17z m300 -23 c57
-16 88 -60 88 -126 0 -45 -5 -59 -29 -86 -28 -31 -33 -33 -110 -36 l-81 -4 0
111 c0 98 2 113 20 131 22 22 56 25 112 10z"/>
<path d="M2427 2312 c-21 -23 -21 -41 -1 -70 19 -27 64 -29 87 -4 19 21 21 45
7 73 -14 25 -71 26 -93 1z"/>
<path d="M1071 1998 c1 -45 3 -54 8 -33 4 20 14 31 31 36 l25 7 -27 1 c-21 1
-28 6 -28 20 0 14 8 21 28 24 25 4 25 4 -5 6 l-33 1 1 -62z"/>
<path d="M1210 2012 c0 -53 12 -72 47 -72 27 0 43 32 43 86 0 55 -19 39 -22
-18 -3 -45 -6 -53 -23 -53 -17 0 -20 8 -23 53 -4 65 -22 69 -22 4z"/>
<path d="M1382 2003 l-2 -63 38 1 c36 1 36 2 7 8 -28 6 -30 10 -36 61 l-6 55
-1 -62z"/>
<path d="M1520 2000 l0 -60 38 1 c30 2 32 3 10 6 -27 4 -28 7 -28 59 0 30 -4
54 -10 54 -6 0 -10 -27 -10 -60z"/>
<path d="M1766 2045 c-6 -16 26 -55 45 -55 24 0 2 -35 -26 -41 l-30 -7 31 -1
c18 0 37 6 45 15 12 14 9 20 -19 44 -39 32 -41 47 -4 53 26 4 26 4 -4 6 -20 0
-34 -5 -38 -14z"/>
<path d="M1918 2053 c19 -4 22 -11 24 -61 l1 -57 6 54 c5 42 11 56 26 62 13 5
4 7 -30 7 -27 0 -40 -3 -27 -5z"/>
<path d="M2097 2053 c-16 -26 -44 -113 -36 -113 5 0 9 7 9 15 0 10 10 15 30
15 20 0 30 -5 30 -15 0 -8 4 -15 10 -15 5 0 0 26 -11 58 -25 65 -25 66 -32 55z
m16 -43 c4 -15 0 -20 -14 -20 -17 0 -18 3 -9 20 6 11 12 20 14 20 2 0 6 -9 9
-20z"/>
<path d="M2232 2048 c-7 -7 -12 -28 -12 -48 0 -43 15 -60 50 -59 20 1 21 2 5
6 -32 8 -45 23 -45 53 0 30 13 45 45 53 16 4 15 5 -5 6 -15 0 -31 -4 -38 -11z"/>
<path d="M2370 2000 c0 -33 4 -60 10 -60 6 0 10 14 10 30 l0 30 31 -32 c30
-32 31 -20 1 15 -14 16 -13 20 7 47 27 38 15 40 -16 3 l-22 -28 -1 28 c0 15
-4 27 -10 27 -6 0 -10 -27 -10 -60z"/>
<path d="M2640 2000 c0 -57 1 -60 24 -60 34 0 56 25 56 64 0 39 -15 56 -52 56
-28 0 -28 -1 -28 -60z m64 28 c15 -25 -4 -72 -32 -76 -20 -3 -22 1 -22 48 0
47 2 51 21 48 12 -2 27 -11 33 -20z"/>
<path d="M2800 2000 l0 -60 38 1 c30 2 32 3 10 6 -36 6 -40 49 -5 56 l22 4
-22 2 c-35 2 -31 39 5 44 22 3 20 4 -10 6 l-38 1 0 -60z"/>
<path d="M2945 2040 c4 -14 15 -43 24 -64 l17 -40 22 59 c12 32 20 60 17 63
-2 3 -9 -8 -15 -24 -26 -72 -26 -72 -40 -29 -14 45 -37 76 -25 35z"/>
<path d="M3100 2000 l0 -60 38 1 c30 2 32 3 10 6 -36 6 -40 49 -5 56 l22 4
-22 2 c-35 2 -31 39 5 44 22 3 20 4 -10 6 l-38 1 0 -60z"/>
<path d="M3252 2003 l-2 -63 38 1 c36 1 36 2 7 8 -28 6 -30 10 -36 61 l-6 55
-1 -62z"/>
<path d="M3402 2048 c-17 -17 -15 -83 2 -98 24 -19 60 -8 75 24 12 26 12 33 0
55 -16 29 -57 39 -77 19z m64 -22 c8 -34 2 -57 -19 -70 -15 -9 -21 -7 -33 8
-8 11 -14 29 -14 41 0 46 55 63 66 21z"/>
<path d="M3571 1998 c1 -35 4 -51 6 -35 3 21 10 27 28 27 15 0 26 7 30 20 9
27 -11 50 -41 50 -23 0 -24 -3 -23 -62z m52 40 c7 -21 -4 -38 -24 -38 -14 0
-19 7 -19 25 0 18 5 25 19 25 11 0 21 -6 24 -12z"/>
<path d="M3720 2000 l0 -60 33 1 c30 2 30 2 5 6 -22 3 -28 10 -28 28 0 18 6
25 28 28 l27 4 -27 2 c-21 1 -28 6 -28 20 0 14 8 21 28 24 25 4 25 4 -5 6
l-33 1 0 -60z"/>
<path d="M3871 1998 c1 -35 4 -51 6 -35 5 34 16 34 38 1 9 -14 19 -23 22 -21
2 3 -3 17 -12 31 -11 17 -13 26 -5 26 7 0 10 11 8 28 -2 21 -9 28 -30 30 l-28
3 1 -63z m46 36 c3 -9 0 -20 -8 -25 -23 -14 -29 -11 -29 16 0 28 27 35 37 9z"/>
</g>
</svg>
